<?xml version="1.0" encoding="UTF-8" standalone="no"?>
<!-- Created with Inkscape (http://www.inkscape.org/) -->

<svg
   xmlns:dc="http://purl.org/dc/elements/1.1/"
   xmlns:cc="http://creativecommons.org/ns#"
   xmlns:rdf="http://www.w3.org/1999/02/22-rdf-syntax-ns#"
   xmlns:svg="http://www.w3.org/2000/svg"
   xmlns="http://www.w3.org/2000/svg"
   xmlns:xlink="http://www.w3.org/1999/xlink"
   xmlns:sodipodi="http://sodipodi.sourceforge.net/DTD/sodipodi-0.dtd"
   xmlns:inkscape="http://www.inkscape.org/namespaces/inkscape"
   sodipodi:docname="mp3encoder.svg"
   inkscape:version="0.48.2 r9819"
   sodipodi:version="0.32"
   id="svg7032"
   height="48.000000px"
   width="48.000000px"
   inkscape:output_extension="org.inkscape.output.svg.inkscape"
   version="1.1">
  <defs
     id="defs3">
    <inkscape:perspective
       sodipodi:type="inkscape:persp3d"
       inkscape:vp_x="0 : 24 : 1"
       inkscape:vp_y="0 : 1000 : 0"
       inkscape:vp_z="48 : 24 : 1"
       inkscape:persp3d-origin="24 : 16 : 1"
       id="perspective21" />
    <linearGradient
       inkscape:collect="always"
       id="linearGradient2072">
      <stop
         style="stop-color:#000000;stop-opacity:1;"
         offset="0"
         id="stop2074" />
      <stop
         style="stop-color:#000000;stop-opacity:0;"
         offset="1"
         id="stop2076" />
    </linearGradient>
    <linearGradient
       inkscape:collect="always"
       id="linearGradient2315">
      <stop
         style="stop-color:#ffffff;stop-opacity:1;"
         offset="0"
         id="stop2317" />
      <stop
         style="stop-color:#ffffff;stop-opacity:0;"
         offset="1"
         id="stop2319" />
    </linearGradient>
    <linearGradient
       id="linearGradient3049">
      <stop
         style="stop-color:#b6b6b6;stop-opacity:1;"
         offset="0"
         id="stop3051" />
      <stop
         id="stop2262"
         offset="0.5"
         style="stop-color:#f2f2f2;stop-opacity:1;" />
      <stop
         style="stop-color:#fafafa;stop-opacity:1;"
         offset="0.67612958"
         id="stop2264" />
      <stop
         id="stop2268"
         offset="0.84051722"
         style="stop-color:#d8d8d8;stop-opacity:1;" />
      <stop
         id="stop2266"
         offset="0.875"
         style="stop-color:#f2f2f2;stop-opacity:1;" />
      <stop
         style="stop-color:#dbdbdb;stop-opacity:1;"
         offset="1"
         id="stop3053" />
    </linearGradient>
    <linearGradient
       id="linearGradient3061">
      <stop
         style="stop-color:#ffffff;stop-opacity:1;"
         offset="0"
         id="stop3063" />
      <stop
         style="stop-color:#000000;stop-opacity:1;"
         offset="1"
         id="stop3065" />
    </linearGradient>
    <linearGradient
       inkscape:collect="always"
       xlink:href="#linearGradient2257"
       id="linearGradient2263"
       x1="12.004697"
       y1="35.688461"
       x2="10.650805"
       y2="33.194965"
       gradientUnits="userSpaceOnUse"
       gradientTransform="matrix(1.007254,-0.02636526,0.02636526,1.007254,1.593411,0.079191)" />
    <linearGradient
       inkscape:collect="always"
       id="linearGradient2257">
      <stop
         style="stop-color:#ffffff;stop-opacity:1;"
         offset="0"
         id="stop2259" />
      <stop
         style="stop-color:#ffffff;stop-opacity:0;"
         offset="1"
         id="stop2261" />
    </linearGradient>
    <linearGradient
       inkscape:collect="always"
       id="linearGradient3041-2">
      <stop
         style="stop-color:#000000;stop-opacity:1;"
         offset="0"
         id="stop3043-6" />
      <stop
         style="stop-color:#000000;stop-opacity:0;"
         offset="1"
         id="stop3045-6" />
    </linearGradient>
    <linearGradient
       id="linearGradient3049-9">
      <stop
         style="stop-color:#b6b6b6;stop-opacity:1;"
         offset="0"
         id="stop3051-5" />
      <stop
         id="stop2262-0"
         offset="0.5"
         style="stop-color:#f2f2f2;stop-opacity:1;" />
      <stop
         style="stop-color:#fafafa;stop-opacity:1;"
         offset="0.67612958"
         id="stop2264-4" />
      <stop
         id="stop2268-8"
         offset="0.84051722"
         style="stop-color:#d8d8d8;stop-opacity:1;" />
      <stop
         id="stop2266-7"
         offset="0.875"
         style="stop-color:#f2f2f2;stop-opacity:1;" />
      <stop
         style="stop-color:#dbdbdb;stop-opacity:1;"
         offset="1"
         id="stop3053-1" />
    </linearGradient>
    <linearGradient
       id="linearGradient3061-2">
      <stop
         style="stop-color:#ffffff;stop-opacity:1;"
         offset="0"
         id="stop3063-7" />
      <stop
         style="stop-color:#000000;stop-opacity:1;"
         offset="1"
         id="stop3065-2" />
    </linearGradient>
    <linearGradient
       inkscape:collect="always"
       xlink:href="#linearGradient2257-6"
       id="linearGradient2263-2"
       x1="12.004697"
       y1="35.688461"
       x2="10.650805"
       y2="33.194965"
       gradientUnits="userSpaceOnUse"
       gradientTransform="matrix(1.007254,-0.02636526,0.02636526,1.007254,1.593411,0.079191)" />
    <linearGradient
       inkscape:collect="always"
       id="linearGradient2257-6">
      <stop
         style="stop-color:#ffffff;stop-opacity:1;"
         offset="0"
         id="stop2259-1" />
      <stop
         style="stop-color:#ffffff;stop-opacity:0;"
         offset="1"
         id="stop2261-0" />
    </linearGradient>
    <clipPath
       clipPathUnits="userSpaceOnUse"
       id="clipPath3207">
      <rect
         style="fill:#cccccc;fill-opacity:1;fill-rule:nonzero;stroke:none"
         id="rect3209"
         width="27.12575"
         height="44.359776"
         x="84.844452"
         y="2.5184813" />
    </clipPath>
    <radialGradient
       inkscape:collect="always"
       xlink:href="#linearGradient2072"
       id="radialGradient3280"
       gradientUnits="userSpaceOnUse"
       gradientTransform="matrix(1,0,0,0.398649,0,21.2728)"
       cx="23.250000"
       cy="35.375000"
       fx="23.250000"
       fy="35.375000"
       r="18.500000" />
    <radialGradient
       inkscape:collect="always"
       xlink:href="#linearGradient2315"
       id="radialGradient3282"
       gradientUnits="userSpaceOnUse"
       gradientTransform="matrix(1,0,0,0.509804,0,16.05392)"
       cx="4.3920336"
       cy="32.307854"
       fx="4.3920336"
       fy="32.307854"
       r="6.3750000" />
    <radialGradient
       inkscape:collect="always"
       xlink:href="#linearGradient2315"
       id="radialGradient3284"
       gradientUnits="userSpaceOnUse"
       gradientTransform="matrix(1,0,0,0.509804,0,16.05392)"
       cx="4.3920336"
       cy="32.307854"
       fx="4.3920336"
       fy="32.307854"
       r="6.3750000" />
    <radialGradient
       inkscape:collect="always"
       xlink:href="#linearGradient3041-2"
       id="radialGradient3286"
       gradientUnits="userSpaceOnUse"
       gradientTransform="matrix(1,0,0,0.374558,0,24.47041)"
       cx="24.8125"
       cy="39.125"
       fx="24.8125"
       fy="39.125"
       r="17.6875" />
    <linearGradient
       inkscape:collect="always"
       xlink:href="#linearGradient3049-9"
       id="linearGradient3288"
       gradientUnits="userSpaceOnUse"
       gradientTransform="matrix(0.87827,0,0,0.87827,2.536988,4.967681)"
       x1="19.648342"
       y1="42.253601"
       x2="20.631224"
       y2="6.7758031" />
    <linearGradient
       inkscape:collect="always"
       xlink:href="#linearGradient3061-2"
       id="linearGradient3290"
       gradientUnits="userSpaceOnUse"
       gradientTransform="matrix(0.87827,0,0,0.87827,5.328299,1.650243)"
       x1="50.152931"
       y1="-3.6324477"
       x2="25.291086"
       y2="-4.3002653" />
    <linearGradient
       inkscape:collect="always"
       xlink:href="#linearGradient2257-6"
       id="linearGradient3292"
       gradientUnits="userSpaceOnUse"
       gradientTransform="matrix(1.007254,-0.02636526,0.02636526,1.007254,1.593411,0.079191)"
       x1="12.004697"
       y1="35.688461"
       x2="10.650805"
       y2="33.194965" />
    <radialGradient
       inkscape:collect="always"
       xlink:href="#linearGradient2315"
       id="radialGradient3294"
       gradientUnits="userSpaceOnUse"
       gradientTransform="matrix(1,0,0,0.509804,0,16.05392)"
       cx="4.3920336"
       cy="32.307854"
       fx="4.3920336"
       fy="32.307854"
       r="6.3750000" />
    <radialGradient
       inkscape:collect="always"
       xlink:href="#linearGradient2315"
       id="radialGradient3296"
       gradientUnits="userSpaceOnUse"
       gradientTransform="matrix(1,0,0,0.509804,0,16.05392)"
       cx="4.3920336"
       cy="32.307854"
       fx="4.3920336"
       fy="32.307854"
       r="6.3750000" />
    <radialGradient
       inkscape:collect="always"
       xlink:href="#linearGradient3041-2"
       id="radialGradient5384"
       gradientUnits="userSpaceOnUse"
       gradientTransform="matrix(1,0,0,0.374558,0,24.47041)"
       cx="24.8125"
       cy="39.125"
       fx="24.8125"
       fy="39.125"
       r="17.6875" />
    <linearGradient
       inkscape:collect="always"
       xlink:href="#linearGradient3049-9"
       id="linearGradient5386"
       gradientUnits="userSpaceOnUse"
       gradientTransform="matrix(0.87827,0,0,0.87827,2.536988,4.967681)"
       x1="19.648342"
       y1="42.253601"
       x2="20.631224"
       y2="6.7758031" />
    <linearGradient
       inkscape:collect="always"
       xlink:href="#linearGradient3061-2"
       id="linearGradient5388"
       gradientUnits="userSpaceOnUse"
       gradientTransform="matrix(0.87827,0,0,0.87827,5.328299,1.650243)"
       x1="50.152931"
       y1="-3.6324477"
       x2="25.291086"
       y2="-4.3002653" />
    <linearGradient
       inkscape:collect="always"
       xlink:href="#linearGradient2257-6"
       id="linearGradient5390"
       gradientUnits="userSpaceOnUse"
       gradientTransform="matrix(1.007254,-0.02636526,0.02636526,1.007254,1.593411,0.079191)"
       x1="12.004697"
       y1="35.688461"
       x2="10.650805"
       y2="33.194965" />
    <radialGradient
       inkscape:collect="always"
       xlink:href="#linearGradient3041-2"
       id="radialGradient5405"
       gradientUnits="userSpaceOnUse"
       gradientTransform="matrix(1,0,0,0.374558,0,24.47041)"
       cx="24.8125"
       cy="39.125"
       fx="24.8125"
       fy="39.125"
       r="17.6875" />
    <linearGradient
       inkscape:collect="always"
       xlink:href="#linearGradient3049-9"
       id="linearGradient5407"
       gradientUnits="userSpaceOnUse"
       gradientTransform="matrix(0.87827,0,0,0.87827,2.536988,4.967681)"
       x1="19.648342"
       y1="42.253601"
       x2="20.631224"
       y2="6.7758031" />
    <linearGradient
       inkscape:collect="always"
       xlink:href="#linearGradient3061-2"
       id="linearGradient5409"
       gradientUnits="userSpaceOnUse"
       gradientTransform="matrix(0.87827,0,0,0.87827,5.328299,1.650243)"
       x1="50.152931"
       y1="-3.6324477"
       x2="25.291086"
       y2="-4.3002653" />
    <linearGradient
       inkscape:collect="always"
       xlink:href="#linearGradient2257-6"
       id="linearGradient5411"
       gradientUnits="userSpaceOnUse"
       gradientTransform="matrix(1.007254,-0.02636526,0.02636526,1.007254,1.593411,0.079191)"
       x1="12.004697"
       y1="35.688461"
       x2="10.650805"
       y2="33.194965" />
    <linearGradient
       inkscape:collect="always"
       xlink:href="#linearGradient2257-6"
       id="linearGradient5414"
       gradientUnits="userSpaceOnUse"
       gradientTransform="matrix(1.007254,-0.02636526,0.02636526,1.007254,-49.886049,1.6078)"
       x1="12.004697"
       y1="35.688461"
       x2="10.650805"
       y2="33.194965" />
    <linearGradient
       inkscape:collect="always"
       xlink:href="#linearGradient3061-2"
       id="linearGradient5419"
       gradientUnits="userSpaceOnUse"
       gradientTransform="matrix(0.87826988,0,0,0.87826988,-29.506452,39.584549)"
       x1="50.152931"
       y1="-3.6324477"
       x2="25.291086"
       y2="-4.3002653" />
    <linearGradient
       inkscape:collect="always"
       xlink:href="#linearGradient3049-9"
       id="linearGradient5423"
       gradientUnits="userSpaceOnUse"
       gradientTransform="matrix(0.87827,0,0,0.87827,-48.942472,6.49629)"
       x1="19.648342"
       y1="42.253601"
       x2="20.631224"
       y2="6.7758031" />
    <radialGradient
       inkscape:collect="always"
       xlink:href="#linearGradient3041-2"
       id="radialGradient5433"
       gradientUnits="userSpaceOnUse"
       gradientTransform="matrix(1,0,0,0.374558,0,24.47041)"
       cx="24.8125"
       cy="39.125"
       fx="24.8125"
       fy="39.125"
       r="17.6875" />
    <linearGradient
       inkscape:collect="always"
       xlink:href="#linearGradient3049-9"
       id="linearGradient5435"
       gradientUnits="userSpaceOnUse"
       gradientTransform="matrix(0.87827,0,0,0.87827,-48.942472,6.49629)"
       x1="19.648342"
       y1="42.253601"
       x2="20.631224"
       y2="6.7758031" />
    <linearGradient
       inkscape:collect="always"
       xlink:href="#linearGradient3061-2"
       id="linearGradient5437"
       gradientUnits="userSpaceOnUse"
       gradientTransform="matrix(0.87826988,0,0,0.87826988,-29.506452,39.584549)"
       x1="50.152931"
       y1="-3.6324477"
       x2="25.291086"
       y2="-4.3002653" />
  </defs>
  <sodipodi:namedview
     fill="#9db029"
     inkscape:window-y="26"
     inkscape:window-x="-1"
     inkscape:window-height="747"
     inkscape:window-width="1280"
     inkscape:showpageshadow="false"
     inkscape:document-units="px"
     inkscape:grid-bbox="true"
     showgrid="false"
     inkscape:current-layer="layer1"
     inkscape:cy="24"
     inkscape:cx="24"
     inkscape:zoom="11.0625"
     inkscape:pageshadow="2"
     inkscape:pageopacity="0.0"
     borderopacity="0.22745098"
     bordercolor="#666666"
     pagecolor="#ffffff"
     id="base"
     inkscape:window-maximized="1" />
  <metadata
     id="metadata4">
    <rdf:RDF>
      <cc:Work
         rdf:about="">
        <dc:format>image/svg+xml</dc:format>
        <dc:type
           rdf:resource="http://purl.org/dc/dcmitype/StillImage" />
        <dc:title />
        <dc:creator>
          <cc:Agent>
            <dc:title>Jakub Steiner</dc:title>
          </cc:Agent>
        </dc:creator>
        <cc:license
           rdf:resource="http://creativecommons.org/licenses/publicdomain/" />
      </cc:Work>
      <cc:License
         rdf:about="http://creativecommons.org/licenses/publicdomain/">
        <cc:permits
           rdf:resource="http://creativecommons.org/ns#Reproduction" />
        <cc:permits
           rdf:resource="http://creativecommons.org/ns#Distribution" />
        <cc:permits
           rdf:resource="http://creativecommons.org/ns#DerivativeWorks" />
      </cc:License>
    </rdf:RDF>
  </metadata>
  <g
     inkscape:groupmode="layer"
     inkscape:label="Layer 1"
     id="layer1">
    <g
       id="g3102"
       transform="translate(2.9928411,0)">
      <path
         transform="translate(0,2.834646)"
         d="m 41.75,35.375 c 0,4.0731 -8.282732,7.375 -18.5,7.375 -10.217268,0 -18.5,-3.3019 -18.5,-7.375 0,-4.0731 8.282732,-7.375 18.5,-7.375 10.217268,0 18.5,3.3019 18.5,7.375 z"
         sodipodi:ry="7.375"
         sodipodi:rx="18.5"
         sodipodi:cy="35.375"
         sodipodi:cx="23.25"
         id="path1344"
         style="opacity:0.3;color:#000000;fill:url(#radialGradient3280);fill-opacity:1;fill-rule:evenodd;stroke:none;stroke-width:2;marker:none;visibility:visible;display:inline;overflow:visible"
         sodipodi:type="arc" />
      <path
         inkscape:connector-curvature="0"
         style="color:#000000;fill:#9db029;fill-opacity:1;fill-rule:nonzero;stroke:#596616;stroke-width:1;stroke-linecap:round;stroke-linejoin:round;stroke-miterlimit:4;stroke-opacity:1;stroke-dashoffset:0;marker:none;visibility:visible;display:block"
         d="m 41.625,7.7951523 c 0,0 -23.0625,2.8346457 -23.0625,2.8346457 l 0,21.78125 c -1.645955,-0.557651 -3.931785,-0.703429 -6.4375,-0.1875 -4.356314,0.896969 -7.4778602,3.299487 -7,5.34375 0.4778601,2.044263 4.393685,2.99072 8.75,2.09375 4.116641,-0.84762 7.684123,-3.037802 7.602633,-5 l 0.15625,-19.03125 c 0,0 16.930457,-2.895306 16.930457,-2.895306 l 0,17.284614 c -10.25,-1.5 -13.292201,2.893236 -12.81434,4.9375 0.47786,2.044263 4.393686,2.990719 8.75,2.09375 3.865376,-0.795885 6.63241,-2.763211 6.90625,-4.625 L 41.625,7.7951523 z"
         id="path7042"
         sodipodi:nodetypes="cccccccccccccc" />
      <path
         inkscape:connector-curvature="0"
         sodipodi:nodetypes="ccccccccccc"
         id="path2311"
         d="m 40.729036,8.8956383 c 0,0 -21.181769,2.8346457 -21.181769,2.8346457 l 0,21.838337 C 11.982012,31.663311 5.8141632,35.40303 6.2685944,37.347065 6.9730255,40.6661 20.646969,38.449299 20.569474,34.208305 l 0.148589,-19.473166 c 0,0 18.850374,-2.892332 18.850374,-2.892332 l 0,19.437166 c -7.566284,-1.926647 -13.265498,1.376384 -12.811066,3.32042 0.579431,3.194035 12.378226,2.113362 13.76364,-2.657146 L 40.729036,8.8956383 z"
         style="opacity:0.51176471;color:#000000;fill:none;stroke:#ffffff;stroke-width:1;stroke-linecap:butt;stroke-linejoin:miter;stroke-miterlimit:4;stroke-opacity:1;stroke-dasharray:none;stroke-dashoffset:0;marker:none;visibility:visible;display:block" />
      <path
         transform="matrix(0.734516,-0.111645,0.111645,0.734516,3.903362,12.22551)"
         d="M 12.25,32.75 C 12.25,34.544925 9.3958153,36 5.875,36 2.3541847,36 -0.5,34.544925 -0.5,32.75 c 0,-1.794925 2.8541847,-3.25 6.375,-3.25 3.5208153,0 6.375,1.455075 6.375,3.25 z"
         sodipodi:ry="3.25"
         sodipodi:rx="6.375"
         sodipodi:cy="32.75"
         sodipodi:cx="5.875"
         id="path2313"
         style="opacity:0.51176471;color:#000000;fill:url(#radialGradient3282);fill-opacity:1;fill-rule:nonzero;stroke:none;stroke-width:1;marker:none;visibility:visible;display:block;overflow:visible"
         sodipodi:type="arc" />
      <path
         sodipodi:type="arc"
         style="opacity:0.51176471;color:#000000;fill:url(#radialGradient3284);fill-opacity:1;fill-rule:nonzero;stroke:none;stroke-width:1;marker:none;visibility:visible;display:block;overflow:visible"
         id="path2323"
         sodipodi:cx="5.875"
         sodipodi:cy="32.75"
         sodipodi:rx="6.375"
         sodipodi:ry="3.25"
         d="M 12.25,32.75 C 12.25,34.544925 9.3958153,36 5.875,36 2.3541847,36 -0.5,34.544925 -0.5,32.75 c 0,-1.794925 2.8541847,-3.25 6.375,-3.25 3.5208153,0 6.375,1.455075 6.375,3.25 z"
         transform="matrix(0.734516,-0.111645,0.111645,0.734516,23.74587,9.390864)" />
    </g>
    <g
       id="g5426"
       transform="translate(48,0)">
      <path
         sodipodi:type="arc"
         style="opacity:0.19886367;color:#000000;fill:url(#radialGradient5433);fill-opacity:1;fill-rule:nonzero;stroke:none;stroke-width:1;marker:none;visibility:visible;display:inline;overflow:visible"
         id="path2258"
         sodipodi:cx="24.8125"
         sodipodi:cy="39.125"
         sodipodi:rx="17.6875"
         sodipodi:ry="6.625"
         d="m 42.5,39.125 c 0,3.658886 -7.918963,6.625 -17.6875,6.625 -9.768537,0 -17.6875,-2.966114 -17.6875,-6.625 0,-3.658886 7.918963,-6.625 17.6875,-6.625 9.768537,0 17.6875,2.966114 17.6875,6.625 z"
         transform="matrix(0.751118,0,0,0.578703,-34.43859,20.892019)" />
      <path
         inkscape:connector-curvature="0"
         sodipodi:nodetypes="cczcccccccccsc"
         id="path2140"
         d="m -33.572747,22.744285 18.992589,19.431724 c 0.768486,0.87827 3.20351,1.557061 4.830485,0 1.571126,-1.503613 1.207621,-3.622864 -0.329351,-5.159837 L -28.303127,17.474665 c 2.25,-6.25 -2.303889,-11.499568 -8.178889,-10.374568 l -1.262514,1.1527294 3.952215,3.7326476 0.219568,3.293516 -2.950842,2.693603 -3.526399,-0.388144 -3.622863,-3.403296 c 0,0 -1.270122,1.254904 -1.270122,1.254904 -0.590763,5.641317 5.307726,10.683228 11.370226,7.308228 z"
         style="color:#000000;fill:url(#linearGradient5435);fill-opacity:1;fill-rule:nonzero;stroke:#888a85;stroke-width:0.9999997;stroke-linecap:butt;stroke-linejoin:miter;stroke-miterlimit:4;stroke-opacity:1;stroke-dasharray:none;stroke-dashoffset:0;marker:none;visibility:visible;display:inline;overflow:visible" />
      <path
         inkscape:connector-curvature="0"
         style="opacity:0.42613639;color:#000000;fill:none;stroke:#ffffff;stroke-width:0.99999917;stroke-linecap:butt;stroke-linejoin:miter;stroke-miterlimit:4;stroke-opacity:1;stroke-dasharray:none;stroke-dashoffset:0;marker:none;visibility:visible;display:inline;overflow:visible"
         d="m -33.362075,21.468709 19.202882,20.027612 c 0.594907,0.679893 2.479927,1.205365 3.739414,0 1.216253,-1.163989 0.934853,-2.80456 -0.25496,-3.994374 L -29.166271,17.880792 c 1.5,-6.5 -1.858788,-10.0046375 -6.858788,-9.8796375 l -0.270131,0.2733768 3.602923,3.2362667 0.130166,4.181794 -3.613917,3.298483 -4.242306,-0.458209 -3.176582,-2.991481 -0.352638,0.430059 c -0.3125,5.96875 6.491719,8.684765 10.585469,5.497265 z"
         id="path3057"
         sodipodi:nodetypes="cczccccccccccc" />
      <rect
         transform="matrix(0.69793809,0.7161581,-0.7161581,0.69793809,0,0)"
         ry="0.88388062"
         rx="0.88388062"
         y="35.315857"
         x="-6.6494188"
         height="2.055491"
         width="23.268272"
         id="rect3059"
         style="opacity:0.17045456;color:#000000;fill:none;stroke:url(#linearGradient5437);stroke-width:0.99999708;stroke-linecap:butt;stroke-linejoin:miter;stroke-miterlimit:4;stroke-opacity:1;stroke-dasharray:none;stroke-dashoffset:0;marker:none;visibility:visible;display:inline;overflow:visible" />
      <path
         transform="matrix(0.87827,0,0,0.87827,-49.052256,6.606073)"
         d="m 43.25,37.5 c 0,0.759392 -0.615608,1.375 -1.375,1.375 -0.759392,0 -1.375,-0.615608 -1.375,-1.375 0,-0.759392 0.615608,-1.375 1.375,-1.375 0.759392,0 1.375,0.615608 1.375,1.375 z"
         sodipodi:ry="1.375"
         sodipodi:rx="1.375"
         sodipodi:cy="37.5"
         sodipodi:cx="41.875"
         id="path2146"
         style="color:#000000;fill:#ffffff;fill-opacity:1;fill-rule:nonzero;stroke:#a1a1a1;stroke-width:1.13860166;stroke-linecap:butt;stroke-linejoin:miter;stroke-miterlimit:4;stroke-opacity:1;stroke-dasharray:none;stroke-dashoffset:0;marker:none;visibility:visible;display:inline;overflow:visible"
         sodipodi:type="arc" />
    </g>
    <g
       id="g3132"
       clip-path="url(#clipPath3207)"
       transform="translate(-57.007159,0)">
      <path
         sodipodi:nodetypes="cccccccccccccc"
         id="path3113"
         d="m 101.625,7.7951523 c 0,0 -23.0625,2.8346457 -23.0625,2.8346457 l 0,21.78125 c -1.645955,-0.557651 -3.931785,-0.703429 -6.4375,-0.1875 -4.356314,0.896969 -7.47786,3.299487 -7,5.34375 0.47786,2.044263 4.393685,2.99072 8.75,2.09375 4.116641,-0.84762 7.684123,-3.037802 7.602633,-5 l 0.15625,-19.03125 c 0,0 16.930457,-2.895306 16.930457,-2.895306 l 0,17.284614 c -10.25,-1.5 -13.292201,2.893236 -12.81434,4.9375 0.47786,2.044263 4.393686,2.990719 8.75,2.09375 3.865376,-0.795885 6.63241,-2.763211 6.90625,-4.625 L 101.625,7.7951523 z"
         style="color:#000000;fill:#9db029;fill-opacity:1;fill-rule:nonzero;stroke:#596616;stroke-width:1;stroke-linecap:round;stroke-linejoin:round;stroke-miterlimit:4;stroke-opacity:1;stroke-dashoffset:0;marker:none;visibility:visible;display:block"
         inkscape:connector-curvature="0" />
      <path
         style="opacity:0.51176471;color:#000000;fill:none;stroke:#ffffff;stroke-width:1;stroke-linecap:butt;stroke-linejoin:miter;stroke-miterlimit:4;stroke-opacity:1;stroke-dasharray:none;stroke-dashoffset:0;marker:none;visibility:visible;display:block"
         d="m 100.72904,8.8956383 c 0,0 -21.181773,2.8346457 -21.181773,2.8346457 l 0,21.838337 c -7.565255,-1.90531 -13.733104,1.834409 -13.278673,3.778444 0.704432,3.319035 14.378375,1.102234 14.30088,-3.13876 l 0.148589,-19.473166 c 0,0 18.850374,-2.892332 18.850374,-2.892332 l 0,19.437166 c -7.566284,-1.926647 -13.265498,1.376384 -12.811066,3.32042 0.579431,3.194035 12.378226,2.113362 13.763639,-2.657146 l 0.20803,-23.0476087 z"
         id="path3115"
         sodipodi:nodetypes="ccccccccccc"
         inkscape:connector-curvature="0" />
      <path
         sodipodi:type="arc"
         style="opacity:0.51176471;color:#000000;fill:url(#radialGradient3294);fill-opacity:1;fill-rule:nonzero;stroke:none;stroke-width:1;marker:none;visibility:visible;display:block;overflow:visible"
         id="path3117"
         sodipodi:cx="5.875"
         sodipodi:cy="32.75"
         sodipodi:rx="6.375"
         sodipodi:ry="3.25"
         d="M 12.25,32.75 C 12.25,34.544925 9.3958153,36 5.875,36 2.3541847,36 -0.5,34.544925 -0.5,32.75 c 0,-1.794925 2.8541847,-3.25 6.375,-3.25 3.5208153,0 6.375,1.455075 6.375,3.25 z"
         transform="matrix(0.734516,-0.111645,0.111645,0.734516,63.903362,12.22551)" />
      <path
         transform="matrix(0.734516,-0.111645,0.111645,0.734516,83.74587,9.390864)"
         d="M 12.25,32.75 C 12.25,34.544925 9.3958153,36 5.875,36 2.3541847,36 -0.5,34.544925 -0.5,32.75 c 0,-1.794925 2.8541847,-3.25 6.375,-3.25 3.5208153,0 6.375,1.455075 6.375,3.25 z"
         sodipodi:ry="3.25"
         sodipodi:rx="6.375"
         sodipodi:cy="32.75"
         sodipodi:cx="5.875"
         id="path3119"
         style="opacity:0.51176471;color:#000000;fill:url(#radialGradient3296);fill-opacity:1;fill-rule:nonzero;stroke:none;stroke-width:1;marker:none;visibility:visible;display:block;overflow:visible"
         sodipodi:type="arc" />
    </g>
  </g>
</svg>
